<?xml version="1.0" encoding="utf-8"?>
<!-- Generator: Adobe Illustrator 19.1.0, SVG Export Plug-In . SVG Version: 6.00 Build 0)  -->
<svg version="1.1" id="Layer_1" xmlns="http://www.w3.org/2000/svg" xmlns:xlink="http://www.w3.org/1999/xlink" x="0px" y="0px"
	 viewBox="0 0 360 319.99" style="enable-background:new 0 0 360 319.99;" xml:space="preserve">
<style type="text/css">
	.st0{fill:#FFFFFF;}
	.st1{fill:#001F5B;}
</style>
<g>
	<g>
		<path class="st0" d="M338.906,22.678c0,0-10.375,7.577-17.988,27.845L240.662,264.41c-5.407,14.406-6.464,22.186,3.263,31.521
			v3.164h-55.502h-16.837h-55.518v-3.164c9.752-9.334,8.696-17.114,3.284-31.521L39.069,50.523
			c-7.577-20.268-17.964-27.845-17.964-27.845v-2.274h42.536h14.382h59.039v2.274c0,0-16.448,10.5-8.079,32.912l51.012,137.447
			L231.02,55.59c8.382-22.412-8.074-32.912-8.074-32.912v-2.274h59.031h14.359h42.57V22.678z M210.531,7.603v21.894
			c0,0,15.363,4.513,8.9,21.675l-39.436,106.192L140.587,51.172c-6.468-17.162,8.911-21.675,8.911-21.675V7.603H7.596v21.894
			c0,0,11.308,5.188,18.649,25.371l79.579,211.962c7.352,19.583,0.761,22.14-3.245,24.378v21.178h154.878v-21.178
			c-4.027-2.238-10.615-4.795-3.264-24.378l79.535-211.962c7.352-20.184,18.689-25.371,18.689-25.371V7.603H210.531z"/>
	</g>
	<polygon class="st0" points="281.977,20.404 179.996,283.731 78.023,20.404 63.651,20.404 171.585,299.094 188.423,299.094 
		296.336,20.404 	"/>
	<g>
		<path class="st1" d="M352.423,29.497c0,0-11.352,5.188-18.693,25.371l-79.535,211.962c-7.351,19.588-0.764,22.14,3.258,24.378
			v21.178h-154.88v-21.178c4.011-2.238,10.607-4.79,3.249-24.378L26.248,54.869C18.906,34.685,7.593,29.497,7.593,29.497V7.603
			h141.902v21.894c0,0-15.368,4.513-8.916,21.675l39.42,106.192l39.433-106.192c6.474-17.162-8.9-21.675-8.9-21.675V7.603h141.892
			V29.497z M202.897,0v34.193c0,0,13.925,2.134,9.423,14.296l-32.321,87.044l-32.292-87.044
			c-4.526-12.163,9.376-14.296,9.376-14.296V0H0v34.193c0,0,11.468,3.022,19.061,23.128L98.71,269.523
			c5.41,14.422,3.454,13.575-3.747,16.896v33.571h170.097v-33.571c-7.206-3.32-9.183-2.474-3.754-16.896l79.628-212.202
			C348.517,37.215,360,34.193,360,34.193V0H202.897z"/>
		<path class="st1" d="M21.103,20.404v2.27c0,0,10.377,7.582,17.97,27.85l80.282,213.88c5.422,14.406,6.468,22.182-3.284,31.531
			v3.159h55.512L63.644,20.404H21.103z"/>
		<path class="st1" d="M231.014,55.58l-51.018,137.457L128.984,55.58c-8.359-22.402,8.079-32.907,8.079-32.907v-2.27H78.023
			l101.973,263.327L281.972,20.404h-59.026v2.27C222.945,22.673,239.401,33.178,231.014,55.58"/>
		<path class="st1" d="M243.925,299.094v-3.164c-9.727-9.35-8.67-17.114-3.263-31.531l80.276-213.875
			c7.572-20.268,17.957-27.845,17.957-27.845v-2.274h-42.544l-107.923,278.69H243.925z"/>
		<path class="st1" d="M277.511,318.515c-3.048,0-5.506-2.469-5.506-5.48c0-3.022,2.458-5.485,5.506-5.485
			c3.007,0,5.444,2.463,5.444,5.485C282.955,316.046,280.518,318.515,277.511,318.515 M277.511,306.028
			c-3.843,0-6.98,3.174-6.98,7.007c0,3.854,3.138,6.955,6.98,6.955c3.817,0,6.929-3.101,6.929-6.955
			C284.439,309.202,281.328,306.028,277.511,306.028"/>
		<path class="st1" d="M277.987,312.277h-1.861v-1.731h1.861c0.491,0,0.868,0.382,0.868,0.89
			C278.855,311.884,278.478,312.277,277.987,312.277 M280.351,311.435c0-1.35-1.061-2.385-2.363-2.385h-3.357v7.927h1.496v-3.194
			h1.045l1.538,3.194h1.642l-1.579-3.331C279.697,313.301,280.351,312.433,280.351,311.435"/>
	</g>
</g>
</svg>
